<?xml version="1.0" encoding="UTF-8"?>
<svg id="Layer_1" data-name="Layer 1" xmlns="http://www.w3.org/2000/svg" xmlns:xlink="http://www.w3.org/1999/xlink" viewBox="0 0 836 323.61">
  <defs>
    <style>
      .cls-1 {
        fill: #fff;
      }

      .cls-2 {
        clip-path: url(#clippath-2);
      }

      .cls-3 {
        clip-path: url(#clippath-1);
      }

      .cls-4 {
        clip-path: url(#clippath-4);
      }

      .cls-5 {
        clip-path: url(#clippath);
      }

      .cls-6 {
        clip-path: url(#clippath-3);
      }

      .cls-7 {
        clip-path: url(#clippath-5);
      }
    </style>
    <clipPath id="clippath">
      <path class="cls-1" d="m534.12,172.9c-.48-.08-.97-.12-1.44-.25-.26-.07-.48-.26-.72-.39.19-.18.34-.43.57-.53,3.12-1.48,6.36-2.57,9.84-2.72,1.53-.07,3.07.08,4.61.13.02.12.05.24.07.36-.29.16-.56.39-.86.47-4.61,1.27-8.83,3.35-12.72,6.13-5.16,3.69-9.09,8.42-12.03,13.99-2.22,4.19-3.7,8.64-4.46,13.33-.83,5.08-.8,10.15.09,15.21.84,4.78,2.41,9.32,4.73,13.59.59,1.1,1.24,2.16,1.94,3.39-.95-3.04-1.94-5.84-2.69-8.71-.75-2.85-1.25-5.77-.94-8.76.17.1.25.21.27.34.18,1.09.27,2.2.54,3.26.42,1.64.84,3.3,1.46,4.87,1.45,3.67,3.4,7.05,5.99,10.07,4.15,4.83,9.21,8.39,15.06,10.8,5.74,2.36,11.74,3.48,17.96,3.15,1.45-.08,2.9-.27,4.2-.4-2.79-.56-5.7-1.06-8.56-1.72-5.6-1.3-10.44-4.15-14.83-7.75-3.25-2.66-5.96-5.83-8.3-9.33-4.05-6.06-6.59-12.71-7.47-19.92-.47-3.91-.48-7.87.26-11.81.86-4.62,2.53-8.86,5.19-12.73,2.49-3.61,5.71-6.42,9.52-8.49,5.25-2.84,10.93-4.25,16.9-4.38,2.73-.06,5.46-.02,8.18.04.97.02,1.93.23,2.9.36.21.03.42.05.65.07-.2-1.11-.86-1.99-1.95-2.86-2.58-2.06-5.62-2.74-8.81-2.93-1.72-.1-3.46.04-5.18-.05-.86-.04-1.79-.2-2.54-.59-3.02-1.56-6.27-2.18-9.59-2.31-3.4-.14-6.69.68-9.9,1.75-5.38,1.8-10.12,4.71-14.43,8.38-5.82,4.95-10.43,10.8-13.36,17.9-.56,1.36-1.03,2.76-1.54,4.14l.25.14c2.04-5.54,5.57-10.04,9.6-14.21.06.18.05.32-.02.42-.56.83-1.12,1.65-1.69,2.48-3.61,5.28-5.44,11.18-6.01,17.5-.48,5.3.45,10.44,2.13,15.44,2.33,6.95,6.21,12.92,11.73,17.79.54.48,1.13.91,1.7,1.37.05-.05.09-.1.14-.15-.54-.66-1.12-1.28-1.61-1.97-3.62-5.15-5.74-10.87-6.72-17.09-.76-4.8-.59-9.56.13-14.3.61-4,1.73-7.88,3.38-11.6,2.35-5.29,5.37-10.12,9.54-14.2,2.65-2.58,5.55-4.81,8.85-6.73Z"/>
    </clipPath>
    <clipPath id="clippath-1">
      <path class="cls-1" d="m545.08,134.14c17.15,2.01,29.12,11.09,35.55,26.94,6.39,15.76,4.27,30.64-6.35,44.36,9.78-5.76,15.79-14.04,18.17-24.92,1.16-5.3,1.27-10.65.28-16.02-.99-5.35-2.9-10.32-5.8-14.91,2.16,5.23,3.23,10.68,3.49,16.36-1.9-10.61-7.17-19.04-16.1-25.05-8.85-5.96-18.64-8.07-29.23-6.75Z"/>
    </clipPath>
    <clipPath id="clippath-2">
      <path class="cls-1" d="m598.63,199.48c-.14-.07-.27-.14-.41-.22,4.17-5.59,6.45-11.86,6.94-18.76.49-6.93-.92-13.48-3.78-19.8-3.36-7.42-10.19-14.18-12.56-15.26,1.23,1.81,2.65,3.74,3.9,5.77,2.93,4.76,4.79,9.95,5.4,15.5.65,5.94.25,11.82-1.46,17.61-1.86,6.3-4.89,11.93-9.09,16.95-4.07,4.86-8.97,8.64-14.72,11.3-4.02,1.86-8.23,3.09-12.66,3.5-.27.03-.54.1-.81.15,0,.09,0,.17,0,.26,1.77.32,3.53.86,5.31.91,3.22.09,6.46.07,9.67-.22,4.03-.36,7.81-1.78,11.42-3.58,4.76-2.38,8.84-5.65,12.31-9.71,3.37-3.94,6.09-8.22,7.75-13.15.63-1.88,1.23-3.78,1.84-5.67-.08-.04-.16-.08-.24-.11-1.86,5.53-5.14,10.15-8.81,14.53Z"/>
    </clipPath>
    <clipPath id="clippath-3">
      <path class="cls-1" d="m602.08,227.71c-.13.08-.27.15-.4.23-1.55,1.02-3.08,2.09-4.67,3.06-2.92,1.78-6.07,3.07-9.37,3.91-5.79,1.48-11.66,1.83-17.56.76-6.23-1.13-12.05-3.36-17.39-6.8-5.32-3.43-9.79-7.74-13.2-13.06-4.02-6.25-6.3-13.11-6.62-20.58,0-.23-.06-.46-.11-.87-2.04,5.84-2.72,14-.73,21.33,1.91,7.04,5.46,13.14,10.7,18.2,5.09,4.92,15.1,10.59,18,10.48-2.16-1.29-4.63-2.59-6.91-4.17-2.24-1.56-4.52-3.14-6.2-5.38,8.54,6.35,17.99,9.11,28.58,7.49,10.44-1.6,19.11-6.4,25.85-14.6Z"/>
    </clipPath>
    <clipPath id="clippath-4">
      <path class="cls-1" d="m506.45,156.98c13.54-10.72,28.46-12.59,44.15-5.98,15.68,6.6,24.65,18.73,26.93,35.7,2.63-10.7,1.34-20.84-4.69-30.15-6.28-9.69-15.21-15.67-26.13-18.31,2.37,1.27,4.98,2.6,7.53,4.06,2.35,1.34,6.72,4.8,7.01,5.59-8.98-6.35-18.7-8.77-29.3-6.7-10.44,2.04-19.01,7.28-25.5,15.79Z"/>
    </clipPath>
    <clipPath id="clippath-5">
      <path class="cls-1" d="m595.13,225.28c-.03-.08-.06-.16-.09-.24-1.43.43-2.85.91-4.3,1.28-1.43.37-2.87.69-4.33.92-1.48.24-2.98.4-4.48.5-1.46.09-2.93.15-4.51-.16.19-.2.22-.27.26-.27.36-.05.72-.11,1.08-.12,4.28-.14,8.28-1.37,12.12-3.16,7.36-3.44,12.9-8.83,16.85-15.89,2.28-4.07,3.85-8.41,4.74-12.97.69-3.59.85-7.24.64-10.89,0-.16-.08-.32-.13-.48-.61,2.98-1.14,5.96-2.15,8.77-3.24,9.03-9.05,16.04-17.2,21.07-8.77,5.4-18.3,7.69-28.58,6.79-4.78-.41-9.31-1.77-13.64-3.72-4.02-1.82-7.72-4.22-10.88-7.36-.12-.12-.29-.2-.44-.3-.06.05-.13.1-.19.15.85,1.39,1.68,2.78,2.54,4.16,2.94,4.66,6.87,8.36,11.52,11.2,4.33,2.64,9.07,4.3,14.12,5.14,3.86.64,7.72.62,11.57.28,3.52-.31,6.98-1.16,10.29-2.44,1.76-.67,3.46-1.49,5.19-2.25Z"/>
    </clipPath>
  </defs>
  <g>
    <path class="cls-1" d="m14.96,137.31h15.69l26.63,92h.48l30.67-92h13.55l32.57,92h.48l25.91-92h14.26l-32.33,109.83h-14.74l-32.81-89.86h-.48l-30.67,89.86h-14.74L14.96,137.31Z"/>
    <path class="cls-1" d="m286.77,187.24v8.56h-92.24c1.19,23.06,15.93,41.36,41.6,41.36,14.74,0,29.72-7.85,36.85-19.49l10.46,8.8c-11.17,16.64-28.05,23.54-47.55,23.54-33.28,0-55.63-23.54-55.63-58.01,0-31.86,22.11-57.53,54.92-57.53,29,0,51.59,20.21,51.59,52.78Zm-52.54-39.94c-21.63,0-37.32,16.64-39.7,35.66h77.98c-.24-20.44-17.35-35.66-38.27-35.66Z"/>
    <path class="cls-1" d="m361.26,134.46c19.02,0,33.28,8.32,41.6,21.4h.48v-18.54h14.26v102.22c0,42.55-21.87,64.66-58.72,64.66-20.21,0-42.32-7.61-54.2-23.06l11.17-10.46c9.98,14.03,26.15,20.68,43.27,20.68,28.53,0,44.22-16.64,44.22-49.21v-16.4h-.48c-8.32,13.07-22.58,21.4-41.6,21.4-31.86,0-58.72-24.96-58.72-56.34s27.58-56.34,58.72-56.34Zm-44.45,56.34c0,23.3,18.78,43.5,43.5,43.5s43.51-19.73,43.51-43.5-19.49-43.51-43.74-43.51-43.27,19.73-43.27,43.51Z"/>
    <path class="cls-1" d="m498.52,135.65l-1.66,14.03c-1.9-.71-3.8-.95-5.71-.95-23.06,0-35.66,15.69-35.66,38.51v59.91h-14.26v-80.12c0-2.38-1.19-27.81-1.19-29.72h14.26c.24,8.32.48,16.64.95,19.26,8.32-14.74,20.21-22.11,34.95-22.11,2.62,0,4.99.24,8.32,1.19Z"/>
  </g>
  <g>
    <path class="cls-1" d="m437.1,292.72c-1.43,0-2.51-.38-3.24-1.13-.74-.75-1.1-1.8-1.1-3.15,0-.87.24-2.34.71-4.41.48-2.06,1.09-4.57,1.85-7.53.75-2.96,1.31-5.25,1.67-6.88.44-1.67.63-2.97.6-3.9-.04-.93-.31-1.6-.8-1.99-.5-.4-1.42-.73-2.77-1.01l.12-.42c3.06.04,6.13.04,9.23,0,.4,0,.54.18.42.54-1.99,7.42-3.41,13.04-4.29,16.85-1.27,5.2-1.9,8.37-1.9,9.52,0,1.27.5,1.9,1.49,1.9.75,0,1.41-.34,1.96-1.01s1.13-1.81,1.73-3.39l.48.12c-1.15,3.93-3.2,5.89-6.13,5.89Zm6.55-43.22c.87,0,1.58.28,2.11.83.53.56.8,1.23.8,2.02,0,.95-.37,1.8-1.1,2.53-.74.73-1.62,1.1-2.65,1.1-.91,0-1.65-.28-2.2-.83-.56-.55-.83-1.21-.83-1.96,0-.99.38-1.85,1.13-2.59.75-.73,1.67-1.1,2.74-1.1Z"/>
    <path class="cls-1" d="m476.45,286.82c-1.23,3.93-3.27,5.89-6.13,5.89-1.35,0-2.42-.35-3.22-1.04-.79-.69-1.19-1.66-1.19-2.89s.77-4.8,2.32-10.71c1.43-5.52,2.14-8.91,2.14-10.18s-.33-2.25-.98-2.95c-.65-.69-1.6-1.04-2.83-1.04-1.79,0-3.62,1.13-5.51,3.39-1.88,2.26-3.44,5.82-4.67,10.66-1.43,5.8-2.5,10.52-3.21,14.17h-5.18c1.94-7.5,3.75-15.26,5.42-23.28.51-2.18.6-3.65.27-4.4s-1.42-1.33-3.24-1.73l.12-.42c3.02.08,6.09.08,9.23,0,.32,0,.42.16.3.48-1.11,3.89-1.87,6.73-2.26,8.51h.12c2.9-6.35,6.39-9.52,10.48-9.52,2.18,0,3.88.59,5.09,1.76,1.21,1.17,1.81,2.75,1.81,4.73,0,1.67-.73,5.18-2.2,10.54-1.59,6.03-2.38,9.6-2.38,10.71s.5,1.61,1.49,1.61c1.35,0,2.6-1.47,3.75-4.41l.48.12Z"/>
    <path class="cls-1" d="m476.8,305.52c-1.79,0-3.19-.36-4.23-1.07-1.03-.71-1.55-1.67-1.55-2.86,0-.79.26-1.5.77-2.11.52-.62,1.17-.92,1.97-.92s1.36.21,1.81.62c.46.42.68.96.68,1.64,0,.36-.09.78-.27,1.28-.18.5-.27.88-.27,1.16,0,.95.7,1.43,2.08,1.43,1.19,0,2.24-.56,3.16-1.67.91-1.11,1.39-2.94,1.43-5.48,0-.36-.01-1.12-.03-2.29-.02-1.17,0-2.18.09-3.04.08-.85.22-1.79.42-2.83l5.48-26.19h-4.52l.18-.83h3.16c.87,0,1.43-.46,1.67-1.37l.6-2.38c1.67-7.34,5.46-11.01,11.37-11.01,1.91,0,3.55.43,4.94,1.28,1.39.85,2.08,2.03,2.08,3.54,0,.91-.28,1.64-.83,2.17-.56.54-1.21.8-1.96.8s-1.38-.21-1.87-.62c-.5-.42-.74-.98-.74-1.7,0-.4.14-.89.42-1.49.28-.59.42-1.11.42-1.55,0-1.11-.99-1.67-2.98-1.67-3.89,0-6.09,2.74-6.61,8.21-.04.83-.06,1.87-.06,3.1v2.68h7.03l-.18.83h-6.97c-.32,1.23-1.27,5.61-2.86,13.13-1.59,7.52-2.52,12.05-2.8,13.6-.52,2.5-1.05,4.6-1.61,6.31-.56,1.71-1.25,3.31-2.08,4.82-.83,1.51-1.85,2.63-3.06,3.36-1.21.73-2.63,1.1-4.26,1.1Z"/>
    <path class="cls-1" d="m509.25,277.84c-1.31,4.88-2.4,9.64-3.27,14.29h-5.18c1.94-7.5,3.75-15.26,5.42-23.28.51-2.18.6-3.65.27-4.4s-1.42-1.33-3.24-1.73l.06-.42c2.98.08,5.99.08,9.05,0,.32,0,.42.16.3.48-.72,2.46-1.51,5.64-2.38,9.52h.18c1.71-3.61,3.35-6.27,4.94-7.98,1.59-1.71,3.33-2.56,5.24-2.56,1.19,0,2.13.34,2.83,1.01s1.04,1.51,1.04,2.5-.28,1.75-.83,2.38c-.56.63-1.29.95-2.2.95-1.51,0-2.38-.77-2.62-2.32-.08-.55-.19-.95-.33-1.19-.14-.24-.43-.36-.86-.36-1.27,0-2.74,1.27-4.41,3.81-1.67,2.54-3,5.64-3.99,9.29Z"/>
    <path class="cls-1" d="m552.88,286.82c-1.15,3.93-3.12,5.89-5.89,5.89-3.02,0-4.53-1.39-4.53-4.17,0-.79.22-2.06.66-3.81h-.18c-2.66,5.24-5.77,7.86-9.34,7.86-2.58,0-4.66-.9-6.25-2.71-1.59-1.8-2.38-4.45-2.38-7.95,0-5.28,1.57-9.98,4.7-14.11,3.14-4.13,7.08-6.19,11.85-6.19,1.51,0,2.98.39,4.41,1.16,1.43.77,2.56,1.89,3.39,3.36,1.27-1.47,2.4-2.96,3.39-4.46h.66c-1.95,7.7-3.77,15.68-5.48,23.93-.44,1.98-.65,3.25-.65,3.81,0,1.11.5,1.67,1.49,1.67,1.35,0,2.6-1.47,3.75-4.41l.42.12Zm-18.04,4.05c1.79,0,3.56-1.11,5.33-3.33,1.76-2.22,3.2-5.05,4.31-8.48,1.11-3.43,1.67-6.8,1.67-10.09,0-2.06-.42-3.67-1.25-4.82-.83-1.15-1.97-1.73-3.39-1.73-2.06,0-3.98,1.14-5.74,3.42-1.77,2.28-3.12,5.06-4.05,8.33-.93,3.27-1.4,6.52-1.4,9.73,0,2.18.4,3.89,1.19,5.12.79,1.23,1.91,1.85,3.33,1.85Z"/>
    <path class="cls-1" d="m565.74,292.72c-3.61,0-5.42-1.75-5.42-5.24,0-.44.05-1.11.15-2.02.1-.91.25-2.17.45-3.78.2-1.61.38-3.07.54-4.37.67-5.79,1.01-9.29,1.01-10.48.04-1.35-.13-2.3-.51-2.86-.38-.55-1.28-.97-2.71-1.25l.12-.42c1.75.08,4.27.08,7.56,0,.44,0,.66.2.66.6-.08,4.13-.48,8.97-1.19,14.53-.16,1.11-.33,2.7-.51,4.76-.18,2.06-.33,3.51-.45,4.35-.12,1.43,0,2.44.39,3.04s1.02.89,1.93.89c1.39,0,3.08-.98,5.06-2.95,1.99-1.96,3.72-4.44,5.21-7.44,1.49-3,2.23-5.76,2.23-8.3,0-1.03-.19-1.85-.56-2.44-.38-.6-.96-1.19-1.75-1.79-1.19-.83-1.79-1.82-1.79-2.98,0-.79.28-1.44.83-1.93.56-.5,1.23-.74,2.02-.74,1.19,0,2.13.5,2.83,1.49.69.99,1.04,2.3,1.04,3.93,0,3.45-.98,7.2-2.95,11.25-1.96,4.05-4.3,7.42-6.99,10.12-2.7,2.7-5.1,4.05-7.2,4.05Z"/>
    <path class="cls-1" d="m609.31,283.85c-2.42,5.91-6.17,8.87-11.25,8.87-3.1,0-5.65-1-7.65-3.01-2-2-3.01-4.77-3.01-8.3,0-4.92,1.62-9.43,4.85-13.51,3.23-4.09,6.95-6.13,11.16-6.13,2.22,0,4.08.49,5.57,1.46,1.49.97,2.23,2.31,2.23,4.02,0,5.83-6.05,9.45-18.16,10.83-.16,1.07-.24,2.3-.24,3.69,0,2.9.62,5.14,1.85,6.73,1.23,1.59,2.96,2.38,5.18,2.38,3.77,0,6.75-2.4,8.93-7.2l.54.18Zm-6.01-21.31c-2.26,0-4.37,1.48-6.31,4.43-1.94,2.96-3.21,6.44-3.81,10.45,2.66-.32,4.92-.88,6.79-1.7,1.86-.81,3.25-1.76,4.17-2.83.91-1.07,1.56-2.12,1.93-3.16.38-1.03.57-2.1.57-3.21,0-1.27-.3-2.25-.89-2.95-.6-.69-1.41-1.04-2.44-1.04Z"/>
    <path class="cls-1" d="m642.47,286.82c-1.23,3.93-3.27,5.89-6.13,5.89-1.35,0-2.42-.35-3.22-1.04-.79-.69-1.19-1.66-1.19-2.89s.77-4.8,2.32-10.71c1.43-5.52,2.14-8.91,2.14-10.18s-.33-2.25-.98-2.95c-.65-.69-1.6-1.04-2.83-1.04-1.79,0-3.62,1.13-5.51,3.39-1.88,2.26-3.44,5.82-4.67,10.66-1.43,5.8-2.5,10.52-3.21,14.17h-5.18c1.94-7.5,3.75-15.26,5.42-23.28.51-2.18.6-3.65.27-4.4s-1.42-1.33-3.24-1.73l.12-.42c3.02.08,6.09.08,9.23,0,.32,0,.42.16.3.48-1.11,3.89-1.87,6.73-2.26,8.51h.12c2.9-6.35,6.39-9.52,10.48-9.52,2.18,0,3.88.59,5.09,1.76,1.21,1.17,1.81,2.75,1.81,4.73,0,1.67-.73,5.18-2.2,10.54-1.59,6.03-2.38,9.6-2.38,10.71s.5,1.61,1.49,1.61c1.35,0,2.6-1.47,3.75-4.41l.48.12Z"/>
    <path class="cls-1" d="m654.85,292.72c-1.99,0-3.51-.48-4.58-1.43-1.07-.95-1.61-2.28-1.61-3.99,0-.91.73-4.6,2.2-11.07,1.39-5.64,2.4-10,3.04-13.1h-4.58l.06-.54c3.1-.55,5.59-1.74,7.47-3.54,1.88-1.81,3.44-4.38,4.67-7.71h.54l-2.98,11.01h7.68l-.18.83h-7.74c-1.03,4.09-2.08,8.47-3.15,13.16-1.43,6.39-2.14,10.1-2.14,11.13,0,2.3,1.01,3.45,3.04,3.45s3.79-1.63,5.54-4.88l.48.3c-1.07,2.14-2.21,3.74-3.42,4.79-1.21,1.05-2.65,1.58-4.32,1.58Z"/>
    <path class="cls-1" d="m675.21,292.72c-2.14,0-3.8-.57-4.97-1.73-1.17-1.15-1.76-2.68-1.76-4.58,0-1.47.77-5.04,2.32-10.72,1.31-5.12,1.98-7.9,2.02-8.33.36-1.75.36-2.87,0-3.36-.36-.5-1.33-.92-2.92-1.28l.12-.42c2.98.08,5.97.08,8.99,0,.28,0,.36.16.24.48-.71,2.34-1.95,6.81-3.69,13.39-1.51,5.83-2.26,9.31-2.26,10.42,0,1.23.34,2.2,1.01,2.92.67.71,1.61,1.07,2.8,1.07,1.75,0,3.52-1.13,5.33-3.39,1.81-2.26,3.32-5.81,4.55-10.66,1.19-4.56,2.34-9.29,3.45-14.17h4.88c-1.47,5.71-3.29,13.53-5.48,23.45-.44,1.98-.66,3.2-.66,3.63,0,1.11.5,1.67,1.49,1.67,1.35,0,2.6-1.47,3.75-4.41l.48.12c-1.19,3.93-3.16,5.89-5.89,5.89-1.47,0-2.6-.34-3.39-1.01-.79-.67-1.19-1.61-1.19-2.8,0-.83.32-2.6.95-5.3h-.12c-2.74,6.07-6.09,9.11-10.06,9.11Z"/>
    <path class="cls-1" d="m708.13,277.84c-1.31,4.88-2.4,9.64-3.27,14.29h-5.18c1.94-7.5,3.75-15.26,5.42-23.28.51-2.18.6-3.65.27-4.4s-1.42-1.33-3.24-1.73l.06-.42c2.98.08,5.99.08,9.05,0,.32,0,.42.16.3.48-.72,2.46-1.51,5.64-2.38,9.52h.18c1.71-3.61,3.35-6.27,4.94-7.98,1.59-1.71,3.33-2.56,5.24-2.56,1.19,0,2.13.34,2.83,1.01s1.04,1.51,1.04,2.5-.28,1.75-.83,2.38c-.56.63-1.29.95-2.2.95-1.51,0-2.38-.77-2.62-2.32-.08-.55-.19-.95-.33-1.19-.14-.24-.43-.36-.86-.36-1.27,0-2.74,1.27-4.41,3.81-1.67,2.54-3,5.64-3.99,9.29Z"/>
    <path class="cls-1" d="m745.75,283.85c-2.42,5.91-6.17,8.87-11.25,8.87-3.1,0-5.65-1-7.65-3.01-2-2-3.01-4.77-3.01-8.3,0-4.92,1.62-9.43,4.85-13.51,3.23-4.09,6.95-6.13,11.16-6.13,2.22,0,4.08.49,5.57,1.46,1.49.97,2.23,2.31,2.23,4.02,0,5.83-6.05,9.45-18.16,10.83-.16,1.07-.24,2.3-.24,3.69,0,2.9.62,5.14,1.85,6.73,1.23,1.59,2.96,2.38,5.18,2.38,3.77,0,6.75-2.4,8.93-7.2l.54.18Zm-6.01-21.31c-2.26,0-4.37,1.48-6.31,4.43-1.94,2.96-3.21,6.44-3.81,10.45,2.66-.32,4.92-.88,6.79-1.7,1.86-.81,3.25-1.76,4.17-2.83.91-1.07,1.56-2.12,1.93-3.16.38-1.03.57-2.1.57-3.21,0-1.27-.3-2.25-.89-2.95-.6-.69-1.41-1.04-2.44-1.04Z"/>
  </g>
  <polygon class="cls-1" points="809.66 18.1 784.34 34.67 794.63 38.7 769.82 121.69 769.81 121.69 765.19 137.32 739.28 229.31 738.8 229.31 706.24 137.32 692.67 137.32 662.01 229.31 661.53 229.31 634.91 137.32 619.22 137.32 653.69 247.14 668.43 247.14 699.09 157.28 699.58 157.28 732.38 247.14 747.12 247.14 779.45 137.32 783.4 123.8 783.43 123.8 807.1 42.72 818.42 46.72 809.66 18.1"/>
  <g>
    <path class="cls-1" d="m534.12,172.9c-.48-.08-.97-.12-1.44-.25-.26-.07-.48-.26-.72-.39.19-.18.34-.43.57-.53,3.12-1.48,6.36-2.57,9.84-2.72,1.53-.07,3.07.08,4.61.13.02.12.05.24.07.36-.29.16-.56.39-.86.47-4.61,1.27-8.83,3.35-12.72,6.13-5.16,3.69-9.09,8.42-12.03,13.99-2.22,4.19-3.7,8.64-4.46,13.33-.83,5.08-.8,10.15.09,15.21.84,4.78,2.41,9.32,4.73,13.59.59,1.1,1.24,2.16,1.94,3.39-.95-3.04-1.94-5.84-2.69-8.71-.75-2.85-1.25-5.77-.94-8.76.17.1.25.21.27.34.18,1.09.27,2.2.54,3.26.42,1.64.84,3.3,1.46,4.87,1.45,3.67,3.4,7.05,5.99,10.07,4.15,4.83,9.21,8.39,15.06,10.8,5.74,2.36,11.74,3.48,17.96,3.15,1.45-.08,2.9-.27,4.2-.4-2.79-.56-5.7-1.06-8.56-1.72-5.6-1.3-10.44-4.15-14.83-7.75-3.25-2.66-5.96-5.83-8.3-9.33-4.05-6.06-6.59-12.71-7.47-19.92-.47-3.91-.48-7.87.26-11.81.86-4.62,2.53-8.86,5.19-12.73,2.49-3.61,5.71-6.42,9.52-8.49,5.25-2.84,10.93-4.25,16.9-4.38,2.73-.06,5.46-.02,8.18.04.97.02,1.93.23,2.9.36.21.03.42.05.65.07-.2-1.11-.86-1.99-1.95-2.86-2.58-2.06-5.62-2.74-8.81-2.93-1.72-.1-3.46.04-5.18-.05-.86-.04-1.79-.2-2.54-.59-3.02-1.56-6.27-2.18-9.59-2.31-3.4-.14-6.69.68-9.9,1.75-5.38,1.8-10.12,4.71-14.43,8.38-5.82,4.95-10.43,10.8-13.36,17.9-.56,1.36-1.03,2.76-1.54,4.14l.25.14c2.04-5.54,5.57-10.04,9.6-14.21.06.18.05.32-.02.42-.56.83-1.12,1.65-1.69,2.48-3.61,5.28-5.44,11.18-6.01,17.5-.48,5.3.45,10.44,2.13,15.44,2.33,6.95,6.21,12.92,11.73,17.79.54.48,1.13.91,1.7,1.37.05-.05.09-.1.14-.15-.54-.66-1.12-1.28-1.61-1.97-3.62-5.15-5.74-10.87-6.72-17.09-.76-4.8-.59-9.56.13-14.3.61-4,1.73-7.88,3.38-11.6,2.35-5.29,5.37-10.12,9.54-14.2,2.65-2.58,5.55-4.81,8.85-6.73Z"/>
    <g class="cls-5">
      <rect class="cls-1" x="502.73" y="165.71" width=".98" height="85.25"/>
      <rect class="cls-1" x="503.7" y="165.71" width=".98" height="85.25"/>
      <rect class="cls-1" x="504.68" y="165.71" width=".98" height="85.25"/>
      <rect class="cls-1" x="505.66" y="165.71" width=".98" height="85.25"/>
      <rect class="cls-1" x="506.63" y="165.71" width=".98" height="85.25"/>
      <rect class="cls-1" x="507.61" y="165.71" width=".98" height="85.25"/>
      <rect class="cls-1" x="508.58" y="165.71" width=".98" height="85.25"/>
      <rect class="cls-1" x="509.56" y="165.71" width=".98" height="85.25"/>
      <rect class="cls-1" x="510.53" y="165.71" width=".98" height="85.25"/>
      <rect class="cls-1" x="511.51" y="165.71" width=".98" height="85.25"/>
      <rect class="cls-1" x="512.48" y="165.71" width=".98" height="85.25"/>
      <rect class="cls-1" x="513.46" y="165.71" width=".98" height="85.25"/>
      <rect class="cls-1" x="514.43" y="165.71" width=".98" height="85.25"/>
      <rect class="cls-1" x="515.41" y="165.71" width=".98" height="85.25"/>
      <rect class="cls-1" x="516.39" y="165.71" width=".98" height="85.25"/>
      <rect class="cls-1" x="517.36" y="165.71" width=".98" height="85.25"/>
      <rect class="cls-1" x="518.34" y="165.71" width=".98" height="85.25"/>
      <rect class="cls-1" x="519.31" y="165.71" width=".98" height="85.25"/>
      <rect class="cls-1" x="520.29" y="165.71" width=".98" height="85.25"/>
      <rect class="cls-1" x="521.26" y="165.71" width=".98" height="85.25"/>
      <rect class="cls-1" x="522.24" y="165.71" width=".98" height="85.25"/>
      <rect class="cls-1" x="523.21" y="165.71" width=".98" height="85.25"/>
      <rect class="cls-1" x="524.19" y="165.71" width=".98" height="85.25"/>
      <rect class="cls-1" x="525.17" y="165.71" width=".98" height="85.25"/>
      <rect class="cls-1" x="526.14" y="165.71" width=".98" height="85.25"/>
      <rect class="cls-1" x="527.12" y="165.71" width=".98" height="85.25"/>
      <rect class="cls-1" x="528.09" y="165.71" width=".98" height="85.25"/>
      <rect class="cls-1" x="529.07" y="165.71" width=".98" height="85.25"/>
      <rect class="cls-1" x="530.04" y="165.71" width=".98" height="85.25"/>
      <rect class="cls-1" x="531.02" y="165.71" width=".98" height="85.25"/>
      <rect class="cls-1" x="531.99" y="165.71" width=".98" height="85.25"/>
      <rect class="cls-1" x="532.97" y="165.71" width=".98" height="85.25"/>
      <rect class="cls-1" x="533.94" y="165.71" width=".98" height="85.25"/>
      <rect class="cls-1" x="534.92" y="165.71" width=".98" height="85.25"/>
      <rect class="cls-1" x="535.9" y="165.71" width=".98" height="85.25"/>
      <rect class="cls-1" x="536.87" y="165.71" width=".98" height="85.25"/>
      <rect class="cls-1" x="537.85" y="165.71" width=".98" height="85.25"/>
      <rect class="cls-1" x="538.82" y="165.71" width=".98" height="85.25"/>
      <rect class="cls-1" x="539.8" y="165.71" width=".98" height="85.25"/>
      <rect class="cls-1" x="540.77" y="165.71" width=".98" height="85.25"/>
      <rect class="cls-1" x="541.75" y="165.71" width=".98" height="85.25"/>
      <rect class="cls-1" x="542.72" y="165.71" width=".98" height="85.25"/>
      <rect class="cls-1" x="543.7" y="165.71" width=".98" height="85.25"/>
      <rect class="cls-1" x="544.67" y="165.71" width=".98" height="85.25"/>
      <rect class="cls-1" x="545.65" y="165.71" width=".98" height="85.25"/>
      <rect class="cls-1" x="546.63" y="165.71" width=".98" height="85.25"/>
      <rect class="cls-1" x="547.6" y="165.71" width=".98" height="85.25"/>
      <rect class="cls-1" x="548.58" y="165.71" width=".98" height="85.25"/>
      <rect class="cls-1" x="549.55" y="165.71" width=".98" height="85.25"/>
      <rect class="cls-1" x="550.53" y="165.71" width=".98" height="85.25"/>
      <rect class="cls-1" x="551.5" y="165.71" width=".98" height="85.25"/>
      <rect class="cls-1" x="552.48" y="165.71" width=".98" height="85.25"/>
      <rect class="cls-1" x="553.45" y="165.71" width=".98" height="85.25"/>
      <rect class="cls-1" x="554.43" y="165.71" width=".98" height="85.25"/>
      <rect class="cls-1" x="555.41" y="165.71" width=".98" height="85.25"/>
      <rect class="cls-1" x="556.38" y="165.71" width=".98" height="85.25"/>
      <rect class="cls-1" x="557.36" y="165.71" width=".98" height="85.25"/>
      <rect class="cls-1" x="558.33" y="165.71" width=".98" height="85.25"/>
      <rect class="cls-1" x="559.31" y="165.71" width=".98" height="85.25"/>
      <rect class="cls-1" x="560.28" y="165.71" width=".98" height="85.25"/>
      <rect class="cls-1" x="561.26" y="165.71" width=".98" height="85.25"/>
      <rect class="cls-1" x="562.23" y="165.71" width=".98" height="85.25"/>
      <rect class="cls-1" x="563.21" y="165.71" width=".98" height="85.25"/>
      <rect class="cls-1" x="564.18" y="165.71" width=".98" height="85.25"/>
      <rect class="cls-1" x="565.16" y="165.71" width=".98" height="85.25"/>
      <rect class="cls-1" x="566.14" y="165.71" width=".98" height="85.25"/>
      <rect class="cls-1" x="567.11" y="165.71" width=".98" height="85.25"/>
      <rect class="cls-1" x="568.09" y="165.71" width=".98" height="85.25"/>
      <rect class="cls-1" x="569.06" y="165.71" width=".98" height="85.25"/>
    </g>
  </g>
  <g>
    <path class="cls-1" d="m545.08,134.14c17.15,2.01,29.12,11.09,35.55,26.94,6.39,15.76,4.27,30.64-6.35,44.36,9.78-5.76,15.79-14.04,18.17-24.92,1.16-5.3,1.27-10.65.28-16.02-.99-5.35-2.9-10.32-5.8-14.91,2.16,5.23,3.23,10.68,3.49,16.36-1.9-10.61-7.17-19.04-16.1-25.05-8.85-5.96-18.64-8.07-29.23-6.75Z"/>
    <g class="cls-3">
      <rect class="cls-1" x="545.08" y="132.82" width=".7" height="72.62"/>
      <rect class="cls-1" x="545.78" y="132.82" width=".7" height="72.62"/>
      <rect class="cls-1" x="546.48" y="132.82" width=".7" height="72.62"/>
      <rect class="cls-1" x="547.18" y="132.82" width=".7" height="72.62"/>
      <rect class="cls-1" x="547.88" y="132.82" width=".7" height="72.62"/>
      <rect class="cls-1" x="548.58" y="132.82" width=".7" height="72.62"/>
      <rect class="cls-1" x="549.28" y="132.82" width=".7" height="72.62"/>
      <rect class="cls-1" x="549.98" y="132.82" width=".7" height="72.62"/>
      <rect class="cls-1" x="550.68" y="132.82" width=".7" height="72.62"/>
      <rect class="cls-1" x="551.38" y="132.82" width=".7" height="72.62"/>
      <rect class="cls-1" x="552.08" y="132.82" width=".7" height="72.62"/>
      <rect class="cls-1" x="552.78" y="132.82" width=".7" height="72.62"/>
      <rect class="cls-1" x="553.48" y="132.82" width=".7" height="72.62"/>
      <rect class="cls-1" x="554.18" y="132.82" width=".7" height="72.62"/>
      <rect class="cls-1" x="554.88" y="132.82" width=".7" height="72.62"/>
      <rect class="cls-1" x="555.58" y="132.82" width=".7" height="72.62"/>
      <rect class="cls-1" x="556.28" y="132.82" width=".7" height="72.62"/>
      <rect class="cls-1" x="556.98" y="132.82" width=".7" height="72.62"/>
      <rect class="cls-1" x="557.68" y="132.82" width=".7" height="72.62"/>
      <rect class="cls-1" x="558.38" y="132.82" width=".7" height="72.62"/>
      <rect class="cls-1" x="559.08" y="132.82" width=".7" height="72.62"/>
      <rect class="cls-1" x="559.78" y="132.82" width=".7" height="72.62"/>
      <rect class="cls-1" x="560.48" y="132.82" width=".7" height="72.62"/>
      <rect class="cls-1" x="561.18" y="132.82" width=".7" height="72.62"/>
      <rect class="cls-1" x="561.89" y="132.82" width=".7" height="72.62"/>
      <rect class="cls-1" x="562.59" y="132.82" width=".7" height="72.62"/>
      <rect class="cls-1" x="563.29" y="132.82" width=".7" height="72.62"/>
      <rect class="cls-1" x="563.99" y="132.82" width=".7" height="72.62"/>
      <rect class="cls-1" x="564.69" y="132.82" width=".7" height="72.62"/>
      <rect class="cls-1" x="565.39" y="132.82" width=".7" height="72.62"/>
      <rect class="cls-1" x="566.09" y="132.82" width=".7" height="72.62"/>
      <rect class="cls-1" x="566.79" y="132.82" width=".7" height="72.62"/>
      <rect class="cls-1" x="567.49" y="132.82" width=".7" height="72.62"/>
      <rect class="cls-1" x="568.19" y="132.82" width=".7" height="72.62"/>
      <rect class="cls-1" x="568.89" y="132.82" width=".7" height="72.62"/>
      <rect class="cls-1" x="569.59" y="132.82" width=".7" height="72.62"/>
      <rect class="cls-1" x="570.29" y="132.82" width=".7" height="72.62"/>
      <rect class="cls-1" x="570.99" y="132.82" width=".7" height="72.62"/>
      <rect class="cls-1" x="571.69" y="132.82" width=".7" height="72.62"/>
      <rect class="cls-1" x="572.39" y="132.82" width=".7" height="72.62"/>
      <rect class="cls-1" x="573.09" y="132.82" width=".7" height="72.62"/>
      <rect class="cls-1" x="573.79" y="132.82" width=".7" height="72.62"/>
      <rect class="cls-1" x="574.49" y="132.82" width=".7" height="72.62"/>
      <rect class="cls-1" x="575.19" y="132.82" width=".7" height="72.62"/>
      <rect class="cls-1" x="575.89" y="132.82" width=".7" height="72.62"/>
      <rect class="cls-1" x="576.59" y="132.82" width=".7" height="72.62"/>
      <rect class="cls-1" x="577.29" y="132.82" width=".7" height="72.62"/>
      <rect class="cls-1" x="578" y="132.82" width=".7" height="72.62"/>
      <rect class="cls-1" x="578.7" y="132.82" width=".7" height="72.62"/>
      <rect class="cls-1" x="579.4" y="132.82" width=".7" height="72.62"/>
      <rect class="cls-1" x="580.1" y="132.82" width=".7" height="72.62"/>
      <rect class="cls-1" x="580.8" y="132.82" width=".7" height="72.62"/>
      <rect class="cls-1" x="581.5" y="132.82" width=".7" height="72.62"/>
      <rect class="cls-1" x="582.2" y="132.82" width=".7" height="72.62"/>
      <rect class="cls-1" x="582.9" y="132.82" width=".7" height="72.62"/>
      <rect class="cls-1" x="583.6" y="132.82" width=".7" height="72.62"/>
      <rect class="cls-1" x="584.3" y="132.82" width=".7" height="72.62"/>
      <rect class="cls-1" x="585" y="132.82" width=".7" height="72.62"/>
      <rect class="cls-1" x="585.7" y="132.82" width=".7" height="72.62"/>
      <rect class="cls-1" x="586.4" y="132.82" width=".7" height="72.62"/>
      <rect class="cls-1" x="587.1" y="132.82" width=".7" height="72.62"/>
      <rect class="cls-1" x="587.8" y="132.82" width=".7" height="72.62"/>
      <rect class="cls-1" x="588.5" y="132.82" width=".7" height="72.62"/>
      <rect class="cls-1" x="589.2" y="132.82" width=".7" height="72.62"/>
      <rect class="cls-1" x="589.9" y="132.82" width=".7" height="72.62"/>
      <rect class="cls-1" x="590.6" y="132.82" width=".7" height="72.62"/>
      <rect class="cls-1" x="591.3" y="132.82" width=".7" height="72.62"/>
      <rect class="cls-1" x="592" y="132.82" width=".7" height="72.62"/>
      <rect class="cls-1" x="592.7" y="132.82" width=".7" height="72.62"/>
      <rect class="cls-1" x="593.4" y="132.82" width=".32" height="72.62"/>
    </g>
  </g>
  <g>
    <path class="cls-1" d="m598.63,199.48c-.14-.07-.27-.14-.41-.22,4.17-5.59,6.45-11.86,6.94-18.76.49-6.93-.92-13.48-3.78-19.8-3.36-7.42-10.19-14.18-12.56-15.26,1.23,1.81,2.65,3.74,3.9,5.77,2.93,4.76,4.79,9.95,5.4,15.5.65,5.94.25,11.82-1.46,17.61-1.86,6.3-4.89,11.93-9.09,16.95-4.07,4.86-8.97,8.64-14.72,11.3-4.02,1.86-8.23,3.09-12.66,3.5-.27.03-.54.1-.81.15,0,.09,0,.17,0,.26,1.77.32,3.53.86,5.31.91,3.22.09,6.46.07,9.67-.22,4.03-.36,7.81-1.78,11.42-3.58,4.76-2.38,8.84-5.65,12.31-9.71,3.37-3.94,6.09-8.22,7.75-13.15.63-1.88,1.23-3.78,1.84-5.67-.08-.04-.16-.08-.24-.11-1.86,5.53-5.14,10.15-8.81,14.53Z"/>
    <g class="cls-2">
      <rect class="cls-1" x="559.36" y="145.44" width=".7" height="72.04"/>
      <rect class="cls-1" x="560.06" y="145.44" width=".7" height="72.04"/>
      <rect class="cls-1" x="560.76" y="145.44" width=".7" height="72.04"/>
      <rect class="cls-1" x="561.46" y="145.44" width=".7" height="72.04"/>
      <rect class="cls-1" x="562.16" y="145.44" width=".7" height="72.04"/>
      <rect class="cls-1" x="562.86" y="145.44" width=".7" height="72.04"/>
      <rect class="cls-1" x="563.56" y="145.44" width=".7" height="72.04"/>
      <rect class="cls-1" x="564.26" y="145.44" width=".7" height="72.04"/>
      <rect class="cls-1" x="564.96" y="145.44" width=".7" height="72.04"/>
      <rect class="cls-1" x="565.66" y="145.44" width=".7" height="72.04"/>
      <rect class="cls-1" x="566.36" y="145.44" width=".7" height="72.04"/>
      <rect class="cls-1" x="567.06" y="145.44" width=".7" height="72.04"/>
      <rect class="cls-1" x="567.76" y="145.44" width=".7" height="72.04"/>
      <rect class="cls-1" x="568.46" y="145.44" width=".7" height="72.04"/>
      <rect class="cls-1" x="569.16" y="145.44" width=".7" height="72.04"/>
      <rect class="cls-1" x="569.86" y="145.44" width=".7" height="72.04"/>
      <rect class="cls-1" x="570.56" y="145.44" width=".7" height="72.04"/>
      <rect class="cls-1" x="571.26" y="145.44" width=".7" height="72.04"/>
      <rect class="cls-1" x="571.96" y="145.44" width=".7" height="72.04"/>
      <rect class="cls-1" x="572.66" y="145.44" width=".7" height="72.04"/>
      <rect class="cls-1" x="573.36" y="145.44" width=".7" height="72.04"/>
      <rect class="cls-1" x="574.06" y="145.44" width=".7" height="72.04"/>
      <rect class="cls-1" x="574.76" y="145.44" width=".7" height="72.04"/>
      <rect class="cls-1" x="575.46" y="145.44" width=".7" height="72.04"/>
      <rect class="cls-1" x="576.16" y="145.44" width=".7" height="72.04"/>
      <rect class="cls-1" x="576.86" y="145.44" width=".7" height="72.04"/>
      <rect class="cls-1" x="577.56" y="145.44" width=".7" height="72.04"/>
      <rect class="cls-1" x="578.26" y="145.44" width=".7" height="72.04"/>
      <rect class="cls-1" x="578.96" y="145.44" width=".7" height="72.04"/>
      <rect class="cls-1" x="579.66" y="145.44" width=".7" height="72.04"/>
      <rect class="cls-1" x="580.36" y="145.44" width=".7" height="72.04"/>
      <rect class="cls-1" x="581.06" y="145.44" width=".7" height="72.04"/>
      <rect class="cls-1" x="581.76" y="145.44" width=".7" height="72.04"/>
      <rect class="cls-1" x="582.47" y="145.44" width=".7" height="72.04"/>
      <rect class="cls-1" x="583.17" y="145.44" width=".7" height="72.04"/>
      <rect class="cls-1" x="583.87" y="145.44" width=".7" height="72.04"/>
      <rect class="cls-1" x="584.57" y="145.44" width=".7" height="72.04"/>
      <rect class="cls-1" x="585.27" y="145.44" width=".7" height="72.04"/>
      <rect class="cls-1" x="585.97" y="145.44" width=".7" height="72.04"/>
      <rect class="cls-1" x="586.67" y="145.44" width=".7" height="72.04"/>
      <rect class="cls-1" x="587.37" y="145.44" width=".7" height="72.04"/>
      <rect class="cls-1" x="588.07" y="145.44" width=".7" height="72.04"/>
      <rect class="cls-1" x="588.77" y="145.44" width=".7" height="72.04"/>
      <rect class="cls-1" x="589.47" y="145.44" width=".7" height="72.04"/>
      <rect class="cls-1" x="590.17" y="145.44" width=".7" height="72.04"/>
      <rect class="cls-1" x="590.87" y="145.44" width=".7" height="72.04"/>
      <rect class="cls-1" x="591.57" y="145.44" width=".7" height="72.04"/>
      <rect class="cls-1" x="592.27" y="145.44" width=".7" height="72.04"/>
      <rect class="cls-1" x="592.97" y="145.44" width=".7" height="72.04"/>
      <rect class="cls-1" x="593.67" y="145.44" width=".7" height="72.04"/>
      <rect class="cls-1" x="594.37" y="145.44" width=".7" height="72.04"/>
      <rect class="cls-1" x="595.07" y="145.44" width=".7" height="72.04"/>
      <rect class="cls-1" x="595.77" y="145.44" width=".7" height="72.04"/>
      <rect class="cls-1" x="596.47" y="145.44" width=".7" height="72.04"/>
      <rect class="cls-1" x="597.17" y="145.44" width=".7" height="72.04"/>
      <rect class="cls-1" x="597.87" y="145.44" width=".7" height="72.04"/>
      <rect class="cls-1" x="598.57" y="145.44" width=".7" height="72.04"/>
      <rect class="cls-1" x="599.27" y="145.44" width=".7" height="72.04"/>
      <rect class="cls-1" x="599.97" y="145.44" width=".7" height="72.04"/>
      <rect class="cls-1" x="600.67" y="145.44" width=".7" height="72.04"/>
      <rect class="cls-1" x="601.37" y="145.44" width=".7" height="72.04"/>
      <rect class="cls-1" x="602.07" y="145.44" width=".7" height="72.04"/>
      <rect class="cls-1" x="602.77" y="145.44" width=".7" height="72.04"/>
      <rect class="cls-1" x="603.47" y="145.44" width=".7" height="72.04"/>
      <rect class="cls-1" x="604.17" y="145.44" width=".7" height="72.04"/>
      <rect class="cls-1" x="604.87" y="145.44" width=".7" height="72.04"/>
      <rect class="cls-1" x="605.57" y="145.44" width=".7" height="72.04"/>
      <rect class="cls-1" x="606.27" y="145.44" width=".7" height="72.04"/>
      <rect class="cls-1" x="606.97" y="145.44" width=".7" height="72.04"/>
    </g>
  </g>
  <g>
    <path class="cls-1" d="m602.08,227.71c-.13.08-.27.15-.4.23-1.55,1.02-3.08,2.09-4.67,3.06-2.92,1.78-6.07,3.07-9.37,3.91-5.79,1.48-11.66,1.83-17.56.76-6.23-1.13-12.05-3.36-17.39-6.8-5.32-3.43-9.79-7.74-13.2-13.06-4.02-6.25-6.3-13.11-6.62-20.58,0-.23-.06-.46-.11-.87-2.04,5.84-2.72,14-.73,21.33,1.91,7.04,5.46,13.14,10.7,18.2,5.09,4.92,15.1,10.59,18,10.48-2.16-1.29-4.63-2.59-6.91-4.17-2.24-1.56-4.52-3.14-6.2-5.38,8.54,6.35,17.99,9.11,28.58,7.49,10.44-1.6,19.11-6.4,25.85-14.6Z"/>
    <g class="cls-6">
      <rect class="cls-1" x="530.05" y="194.36" width=".8" height="50.12"/>
      <rect class="cls-1" x="530.85" y="194.36" width="1.03" height="50.12"/>
      <rect class="cls-1" x="531.88" y="194.36" width="1.03" height="50.12"/>
      <rect class="cls-1" x="532.91" y="194.36" width="1.03" height="50.12"/>
      <rect class="cls-1" x="533.95" y="194.36" width="1.03" height="50.12"/>
      <rect class="cls-1" x="534.98" y="194.36" width="1.03" height="50.12"/>
      <rect class="cls-1" x="536.01" y="194.36" width="1.03" height="50.12"/>
      <rect class="cls-1" x="537.04" y="194.36" width="1.03" height="50.12"/>
      <rect class="cls-1" x="538.07" y="194.36" width="1.03" height="50.12"/>
      <rect class="cls-1" x="539.11" y="194.36" width="1.03" height="50.12"/>
      <rect class="cls-1" x="540.14" y="194.36" width="1.03" height="50.12"/>
      <rect class="cls-1" x="541.17" y="194.36" width="1.03" height="50.12"/>
      <rect class="cls-1" x="542.2" y="194.36" width="1.03" height="50.12"/>
      <rect class="cls-1" x="543.24" y="194.36" width="1.03" height="50.12"/>
      <rect class="cls-1" x="544.27" y="194.36" width="1.03" height="50.12"/>
      <rect class="cls-1" x="545.3" y="194.36" width="1.03" height="50.12"/>
      <rect class="cls-1" x="546.33" y="194.36" width="1.03" height="50.12"/>
      <rect class="cls-1" x="547.36" y="194.36" width="1.03" height="50.12"/>
      <rect class="cls-1" x="548.4" y="194.36" width="1.03" height="50.12"/>
      <rect class="cls-1" x="549.43" y="194.36" width="1.03" height="50.12"/>
      <rect class="cls-1" x="550.46" y="194.36" width="1.03" height="50.12"/>
      <rect class="cls-1" x="551.49" y="194.36" width="1.03" height="50.12"/>
      <rect class="cls-1" x="552.53" y="194.36" width="1.03" height="50.12"/>
      <rect class="cls-1" x="553.56" y="194.36" width="1.03" height="50.12"/>
      <rect class="cls-1" x="554.59" y="194.36" width="1.03" height="50.12"/>
      <rect class="cls-1" x="555.62" y="194.36" width="1.03" height="50.12"/>
      <rect class="cls-1" x="556.66" y="194.36" width="1.03" height="50.12"/>
      <rect class="cls-1" x="557.69" y="194.36" width="1.03" height="50.12"/>
      <rect class="cls-1" x="558.72" y="194.36" width="1.03" height="50.12"/>
      <rect class="cls-1" x="559.75" y="194.36" width="1.03" height="50.12"/>
      <rect class="cls-1" x="560.78" y="194.36" width="1.03" height="50.12"/>
      <rect class="cls-1" x="561.82" y="194.36" width="1.03" height="50.12"/>
      <rect class="cls-1" x="562.85" y="194.36" width="1.03" height="50.12"/>
      <rect class="cls-1" x="563.88" y="194.36" width="1.03" height="50.12"/>
      <rect class="cls-1" x="564.91" y="194.36" width="1.03" height="50.12"/>
      <rect class="cls-1" x="565.95" y="194.36" width="1.03" height="50.12"/>
      <rect class="cls-1" x="566.98" y="194.36" width="1.03" height="50.12"/>
      <rect class="cls-1" x="568.01" y="194.36" width="1.03" height="50.12"/>
      <rect class="cls-1" x="569.04" y="194.36" width="1.03" height="50.12"/>
      <rect class="cls-1" x="570.07" y="194.36" width="1.03" height="50.12"/>
      <rect class="cls-1" x="571.11" y="194.36" width="1.03" height="50.12"/>
      <rect class="cls-1" x="572.14" y="194.36" width="1.03" height="50.12"/>
      <rect class="cls-1" x="573.17" y="194.36" width="1.03" height="50.12"/>
      <rect class="cls-1" x="574.2" y="194.36" width="1.03" height="50.12"/>
      <rect class="cls-1" x="575.24" y="194.36" width="1.03" height="50.12"/>
      <rect class="cls-1" x="576.27" y="194.36" width="1.03" height="50.12"/>
      <rect class="cls-1" x="577.3" y="194.36" width="1.03" height="50.12"/>
      <rect class="cls-1" x="578.33" y="194.36" width="1.03" height="50.12"/>
      <rect class="cls-1" x="579.37" y="194.36" width="1.03" height="50.12"/>
      <rect class="cls-1" x="580.4" y="194.36" width="1.03" height="50.12"/>
      <rect class="cls-1" x="581.43" y="194.36" width="1.03" height="50.12"/>
      <rect class="cls-1" x="582.46" y="194.36" width="1.03" height="50.12"/>
      <rect class="cls-1" x="583.49" y="194.36" width="1.03" height="50.12"/>
      <rect class="cls-1" x="584.53" y="194.36" width="1.03" height="50.12"/>
      <rect class="cls-1" x="585.56" y="194.36" width="1.03" height="50.12"/>
      <rect class="cls-1" x="586.59" y="194.36" width="1.03" height="50.12"/>
      <rect class="cls-1" x="587.62" y="194.36" width="1.03" height="50.12"/>
      <rect class="cls-1" x="588.66" y="194.36" width="1.03" height="50.12"/>
      <rect class="cls-1" x="589.69" y="194.36" width="1.03" height="50.12"/>
      <rect class="cls-1" x="590.72" y="194.36" width="1.03" height="50.12"/>
      <rect class="cls-1" x="591.75" y="194.36" width="1.03" height="50.12"/>
      <rect class="cls-1" x="592.78" y="194.36" width="1.03" height="50.12"/>
      <rect class="cls-1" x="593.82" y="194.36" width="1.03" height="50.12"/>
      <rect class="cls-1" x="594.85" y="194.36" width="1.03" height="50.12"/>
      <rect class="cls-1" x="595.88" y="194.36" width="1.03" height="50.12"/>
      <rect class="cls-1" x="596.91" y="194.36" width="1.03" height="50.12"/>
      <rect class="cls-1" x="597.95" y="194.36" width="1.03" height="50.12"/>
      <rect class="cls-1" x="598.98" y="194.36" width="1.03" height="50.12"/>
      <rect class="cls-1" x="600.01" y="194.36" width="1.03" height="50.12"/>
      <rect class="cls-1" x="601.04" y="194.36" width="1.03" height="50.12"/>
    </g>
  </g>
  <g>
    <path class="cls-1" d="m506.45,156.98c13.54-10.72,28.46-12.59,44.15-5.98,15.68,6.6,24.65,18.73,26.93,35.7,2.63-10.7,1.34-20.84-4.69-30.15-6.28-9.69-15.21-15.67-26.13-18.31,2.37,1.27,4.98,2.6,7.53,4.06,2.35,1.34,6.72,4.8,7.01,5.59-8.98-6.35-18.7-8.77-29.3-6.7-10.44,2.04-19.01,7.28-25.5,15.79Z"/>
    <g class="cls-4">
      <rect class="cls-1" x="506.45" y="138.24" width="1.05" height="48.46"/>
      <rect class="cls-1" x="507.5" y="138.24" width="1.05" height="48.46"/>
      <rect class="cls-1" x="508.55" y="138.24" width="1.05" height="48.46"/>
      <rect class="cls-1" x="509.6" y="138.24" width="1.05" height="48.46"/>
      <rect class="cls-1" x="510.65" y="138.24" width="1.05" height="48.46"/>
      <rect class="cls-1" x="511.7" y="138.24" width="1.05" height="48.46"/>
      <rect class="cls-1" x="512.75" y="138.24" width="1.05" height="48.46"/>
      <rect class="cls-1" x="513.8" y="138.24" width="1.05" height="48.46"/>
      <rect class="cls-1" x="514.84" y="138.24" width="1.05" height="48.46"/>
      <rect class="cls-1" x="515.89" y="138.24" width="1.05" height="48.46"/>
      <rect class="cls-1" x="516.94" y="138.24" width="1.05" height="48.46"/>
      <rect class="cls-1" x="517.99" y="138.24" width="1.05" height="48.46"/>
      <rect class="cls-1" x="519.04" y="138.24" width="1.05" height="48.46"/>
      <rect class="cls-1" x="520.09" y="138.24" width="1.05" height="48.46"/>
      <rect class="cls-1" x="521.14" y="138.24" width="1.05" height="48.46"/>
      <rect class="cls-1" x="522.19" y="138.24" width="1.05" height="48.46"/>
      <rect class="cls-1" x="523.24" y="138.24" width="1.05" height="48.46"/>
      <rect class="cls-1" x="524.28" y="138.24" width="1.05" height="48.46"/>
      <rect class="cls-1" x="525.33" y="138.24" width="1.05" height="48.46"/>
      <rect class="cls-1" x="526.38" y="138.24" width="1.05" height="48.46"/>
      <rect class="cls-1" x="527.43" y="138.24" width="1.05" height="48.46"/>
      <rect class="cls-1" x="528.48" y="138.24" width="1.05" height="48.46"/>
      <rect class="cls-1" x="529.53" y="138.24" width="1.05" height="48.46"/>
      <rect class="cls-1" x="530.58" y="138.24" width="1.05" height="48.46"/>
      <rect class="cls-1" x="531.63" y="138.24" width="1.05" height="48.46"/>
      <rect class="cls-1" x="532.68" y="138.24" width="1.05" height="48.46"/>
      <rect class="cls-1" x="533.73" y="138.24" width="1.05" height="48.46"/>
      <rect class="cls-1" x="534.77" y="138.24" width="1.05" height="48.46"/>
      <rect class="cls-1" x="535.82" y="138.24" width="1.05" height="48.46"/>
      <rect class="cls-1" x="536.87" y="138.24" width="1.05" height="48.46"/>
      <rect class="cls-1" x="537.92" y="138.24" width="1.05" height="48.46"/>
      <rect class="cls-1" x="538.97" y="138.24" width="1.05" height="48.46"/>
      <rect class="cls-1" x="540.02" y="138.24" width="1.05" height="48.46"/>
      <rect class="cls-1" x="541.07" y="138.24" width="1.05" height="48.46"/>
      <rect class="cls-1" x="542.12" y="138.24" width="1.05" height="48.46"/>
      <rect class="cls-1" x="543.17" y="138.24" width="1.05" height="48.46"/>
      <rect class="cls-1" x="544.21" y="138.24" width="1.05" height="48.46"/>
      <rect class="cls-1" x="545.26" y="138.24" width="1.05" height="48.46"/>
      <rect class="cls-1" x="546.31" y="138.24" width="1.05" height="48.46"/>
      <rect class="cls-1" x="547.36" y="138.24" width="1.05" height="48.46"/>
      <rect class="cls-1" x="548.41" y="138.24" width="1.05" height="48.46"/>
      <rect class="cls-1" x="549.46" y="138.24" width="1.05" height="48.46"/>
      <rect class="cls-1" x="550.51" y="138.24" width="1.05" height="48.46"/>
      <rect class="cls-1" x="551.56" y="138.24" width="1.05" height="48.46"/>
      <rect class="cls-1" x="552.61" y="138.24" width="1.05" height="48.46"/>
      <rect class="cls-1" x="553.65" y="138.24" width="1.05" height="48.46"/>
      <rect class="cls-1" x="554.7" y="138.24" width="1.05" height="48.46"/>
      <rect class="cls-1" x="555.75" y="138.24" width="1.05" height="48.46"/>
      <rect class="cls-1" x="556.8" y="138.24" width="1.05" height="48.46"/>
      <rect class="cls-1" x="557.85" y="138.24" width="1.05" height="48.46"/>
      <rect class="cls-1" x="558.9" y="138.24" width="1.05" height="48.46"/>
      <rect class="cls-1" x="559.95" y="138.24" width="1.05" height="48.46"/>
      <rect class="cls-1" x="561" y="138.24" width="1.05" height="48.46"/>
      <rect class="cls-1" x="562.05" y="138.24" width="1.05" height="48.46"/>
      <rect class="cls-1" x="563.09" y="138.24" width="1.05" height="48.46"/>
      <rect class="cls-1" x="564.14" y="138.24" width="1.05" height="48.46"/>
      <rect class="cls-1" x="565.19" y="138.24" width="1.05" height="48.46"/>
      <rect class="cls-1" x="566.24" y="138.24" width="1.05" height="48.46"/>
      <rect class="cls-1" x="567.29" y="138.24" width="1.05" height="48.46"/>
      <rect class="cls-1" x="568.34" y="138.24" width="1.05" height="48.46"/>
      <rect class="cls-1" x="569.39" y="138.24" width="1.05" height="48.46"/>
      <rect class="cls-1" x="570.44" y="138.24" width="1.05" height="48.46"/>
      <rect class="cls-1" x="571.49" y="138.24" width="1.05" height="48.46"/>
      <rect class="cls-1" x="572.53" y="138.24" width="1.05" height="48.46"/>
      <rect class="cls-1" x="573.58" y="138.24" width="1.05" height="48.46"/>
      <rect class="cls-1" x="574.63" y="138.24" width="1.05" height="48.46"/>
      <rect class="cls-1" x="575.68" y="138.24" width="1.05" height="48.46"/>
      <rect class="cls-1" x="576.73" y="138.24" width="1.05" height="48.46"/>
      <rect class="cls-1" x="577.78" y="138.24" width="1.05" height="48.46"/>
      <rect class="cls-1" x="578.83" y="138.24" width="1.34" height="48.46"/>
    </g>
  </g>
  <g>
    <path class="cls-1" d="m595.13,225.28c-.03-.08-.06-.16-.09-.24-1.43.43-2.85.91-4.3,1.28-1.43.37-2.87.69-4.33.92-1.48.24-2.98.4-4.48.5-1.46.09-2.93.15-4.51-.16.19-.2.22-.27.26-.27.36-.05.72-.11,1.08-.12,4.28-.14,8.28-1.37,12.12-3.16,7.36-3.44,12.9-8.83,16.85-15.89,2.28-4.07,3.85-8.41,4.74-12.97.69-3.59.85-7.24.64-10.89,0-.16-.08-.32-.13-.48-.61,2.98-1.14,5.96-2.15,8.77-3.24,9.03-9.05,16.04-17.2,21.07-8.77,5.4-18.3,7.69-28.58,6.79-4.78-.41-9.31-1.77-13.64-3.72-4.02-1.82-7.72-4.22-10.88-7.36-.12-.12-.29-.2-.44-.3-.06.05-.13.1-.19.15.85,1.39,1.68,2.78,2.54,4.16,2.94,4.66,6.87,8.36,11.52,11.2,4.33,2.64,9.07,4.3,14.12,5.14,3.86.64,7.72.62,11.57.28,3.52-.31,6.98-1.16,10.29-2.44,1.76-.67,3.46-1.49,5.19-2.25Z"/>
    <g class="cls-7">
      <rect class="cls-1" x="539.9" y="183.8" width="1.06" height="46.54"/>
      <rect class="cls-1" x="540.96" y="183.8" width="1.06" height="46.54"/>
      <rect class="cls-1" x="542.02" y="183.8" width="1.06" height="46.54"/>
      <rect class="cls-1" x="543.08" y="183.8" width="1.06" height="46.54"/>
      <rect class="cls-1" x="544.14" y="183.8" width="1.06" height="46.54"/>
      <rect class="cls-1" x="545.21" y="183.8" width="1.06" height="46.54"/>
      <rect class="cls-1" x="546.27" y="183.8" width="1.06" height="46.54"/>
      <rect class="cls-1" x="547.33" y="183.8" width="1.06" height="46.54"/>
      <rect class="cls-1" x="548.39" y="183.8" width="1.06" height="46.54"/>
      <rect class="cls-1" x="549.46" y="183.8" width="1.06" height="46.54"/>
      <rect class="cls-1" x="550.52" y="183.8" width="1.06" height="46.54"/>
      <rect class="cls-1" x="551.58" y="183.8" width="1.06" height="46.54"/>
      <rect class="cls-1" x="552.64" y="183.8" width="1.06" height="46.54"/>
      <rect class="cls-1" x="553.71" y="183.8" width="1.06" height="46.54"/>
      <rect class="cls-1" x="554.77" y="183.8" width="1.06" height="46.54"/>
      <rect class="cls-1" x="555.83" y="183.8" width="1.06" height="46.54"/>
      <rect class="cls-1" x="556.89" y="183.8" width="1.06" height="46.54"/>
      <rect class="cls-1" x="557.95" y="183.8" width="1.06" height="46.54"/>
      <rect class="cls-1" x="559.02" y="183.8" width="1.06" height="46.54"/>
      <rect class="cls-1" x="560.08" y="183.8" width="1.06" height="46.54"/>
      <rect class="cls-1" x="561.14" y="183.8" width="1.06" height="46.54"/>
      <rect class="cls-1" x="562.2" y="183.8" width="1.06" height="46.54"/>
      <rect class="cls-1" x="563.27" y="183.8" width="1.06" height="46.54"/>
      <rect class="cls-1" x="564.33" y="183.8" width="1.06" height="46.54"/>
      <rect class="cls-1" x="565.39" y="183.8" width="1.06" height="46.54"/>
      <rect class="cls-1" x="566.45" y="183.8" width="1.06" height="46.54"/>
      <rect class="cls-1" x="567.52" y="183.8" width="1.06" height="46.54"/>
      <rect class="cls-1" x="568.58" y="183.8" width="1.06" height="46.54"/>
      <rect class="cls-1" x="569.64" y="183.8" width="1.06" height="46.54"/>
      <rect class="cls-1" x="570.7" y="183.8" width="1.06" height="46.54"/>
      <rect class="cls-1" x="571.77" y="183.8" width="1.06" height="46.54"/>
      <rect class="cls-1" x="572.83" y="183.8" width="1.06" height="46.54"/>
      <rect class="cls-1" x="573.89" y="183.8" width="1.06" height="46.54"/>
      <rect class="cls-1" x="574.95" y="183.8" width="1.06" height="46.54"/>
      <rect class="cls-1" x="576.01" y="183.8" width="1.06" height="46.54"/>
      <rect class="cls-1" x="577.08" y="183.8" width="1.06" height="46.54"/>
      <rect class="cls-1" x="578.14" y="183.8" width="1.06" height="46.54"/>
      <rect class="cls-1" x="579.2" y="183.8" width="1.06" height="46.54"/>
      <rect class="cls-1" x="580.26" y="183.8" width="1.06" height="46.54"/>
      <rect class="cls-1" x="581.33" y="183.8" width="1.06" height="46.54"/>
      <rect class="cls-1" x="582.39" y="183.8" width="1.06" height="46.54"/>
      <rect class="cls-1" x="583.45" y="183.8" width="1.06" height="46.54"/>
      <rect class="cls-1" x="584.51" y="183.8" width="1.06" height="46.54"/>
      <rect class="cls-1" x="585.58" y="183.8" width="1.06" height="46.54"/>
      <rect class="cls-1" x="586.64" y="183.8" width="1.06" height="46.54"/>
      <rect class="cls-1" x="587.7" y="183.8" width="1.06" height="46.54"/>
      <rect class="cls-1" x="588.76" y="183.8" width="1.06" height="46.54"/>
      <rect class="cls-1" x="589.82" y="183.8" width="1.06" height="46.54"/>
      <rect class="cls-1" x="590.89" y="183.8" width="1.06" height="46.54"/>
      <rect class="cls-1" x="591.95" y="183.8" width="1.06" height="46.54"/>
      <rect class="cls-1" x="593.01" y="183.8" width="1.06" height="46.54"/>
      <rect class="cls-1" x="594.07" y="183.8" width="1.06" height="46.54"/>
      <rect class="cls-1" x="595.14" y="183.8" width="1.06" height="46.54"/>
      <rect class="cls-1" x="596.2" y="183.8" width="1.06" height="46.54"/>
      <rect class="cls-1" x="597.26" y="183.8" width="1.06" height="46.54"/>
      <rect class="cls-1" x="598.32" y="183.8" width="1.06" height="46.54"/>
      <rect class="cls-1" x="599.39" y="183.8" width="1.06" height="46.54"/>
      <rect class="cls-1" x="600.45" y="183.8" width="1.06" height="46.54"/>
      <rect class="cls-1" x="601.51" y="183.8" width="1.06" height="46.54"/>
      <rect class="cls-1" x="602.57" y="183.8" width="1.06" height="46.54"/>
      <rect class="cls-1" x="603.63" y="183.8" width="1.06" height="46.54"/>
      <rect class="cls-1" x="604.7" y="183.8" width="1.06" height="46.54"/>
      <rect class="cls-1" x="605.76" y="183.8" width="1.06" height="46.54"/>
      <rect class="cls-1" x="606.82" y="183.8" width="1.06" height="46.54"/>
      <rect class="cls-1" x="607.88" y="183.8" width="1.06" height="46.54"/>
      <rect class="cls-1" x="608.95" y="183.8" width="1.06" height="46.54"/>
      <rect class="cls-1" x="610.01" y="183.8" width="1.06" height="46.54"/>
      <rect class="cls-1" x="611.07" y="183.8" width="1.06" height="46.54"/>
      <rect class="cls-1" x="612.13" y="183.8" width="1.06" height="46.54"/>
      <rect class="cls-1" x="613.2" y="183.8" width=".12" height="46.54"/>
    </g>
  </g>
</svg>